# xmcd
#
# Track frame offsets:
#	150
#	20930
#	37750
#	55907
#	73275
#	91992
#	109050
#	128560
#	141405
#	160442
#	179697
#	205530
#	223582
#	240535
#	259617
#	275352
#
# Disc length: 3895 seconds
#
# Revision: 3
# Processed by: cddbd v1.5.2PL0 Copyright (c) Steve Scherf et al.
# Submitted via: audiograbber 1.83.01
#
DISCID=ed0f3510
DTITLE=Various Artist - KB-22822
DYEAR=2001
DGENRE=Country
TTITLE0=Lonestar - Amazed
TTITLE1=Dixie Chicks - You Were Mine
TTITLE2=Garth Brooks - If Tomorrow Never Comes
TTITLE3=Leann Rimes - You Light Up My Life
TTITLE4=Michael English - Your Love Amazes Me
TTITLE5=Shania Twain - You're Still The One
TTITLE6=John Michael Montgomery - I Swear
TTITLE7=Patsy Cline - Crazy
TTITLE8=Vince Gill - When Love Finds You
TTITLE9=Faith Hill - Breathe
TTITLE10=Bob Carlisle - Butterfly Kisses
TTITLE11=Leann Rimes - Unchained Melody
TTITLE12=Garth Brooks - The Dance
TTITLE13=Clint Black - When I Said I Do
TTITLE14=Travis Tritt - Can I Trust You With My Heart
TTITLE15=Lonestar - What About Now
EXTD=
EXTT0=
EXTT1=
EXTT2=
EXTT3=
EXTT4=
EXTT5=
EXTT6=
EXTT7=
EXTT8=
EXTT9=
EXTT10=
EXTT11=
EXTT12=
EXTT13=
EXTT14=
EXTT15=
PLAYORDER=
